inDegrees=yes
name=ik_S56_A11_T02
DataType=double
version=3
OpenSimVersion=4.3-2021-08-27-4bc7ad9
endheader
time	pelvis_tilt	pelvis_list	pelvis_rotation	pelvis_tx	pelvis_ty	pelvis_tz	hip_flexion_r	hip_adduction_r	hip_rotation_r	knee_angle_r	knee_angle_r_beta	ankle_angle_r	subtalar_angle_r	mtp_angle_r	hip_flexion_l	hip_adduction_l	hip_rotation_l	knee_angle_l	knee_angle_l_beta	ankle_angle_l	subtalar_angle_l	mtp_angle_l	lumbar_extension	lumbar_bending	lumbar_rotation	arm_flex_r	arm_add_r	arm_rot_r	elbow_flex_r	pro_sup_r	wrist_flex_r	wrist_dev_r	arm_flex_l	arm_add_l	arm_rot_l	elbow_flex_l	pro_sup_l	wrist_flex_l	wrist_dev_l
4.279999999999997	-1.235936832992629	-0.7879030696655929	32.89038757303514	0	0.9399999999999999	0	27.75805124763234	-8.860745547689254	-8.042100018274587	31.3592358997713	0.5473219173606156	0	0	0	27.75805124763234	-8.860745547689254	-8.042100018274587	31.3592358997713	0.5473219173606156	0	0	0	-1.205594257000944	0.1371984677451498	15.84223726196517	13.11095947805551	-13.61990915161693	3.280644320802957	40.45078379641328	90.5696347082233	0	0	2.979028427701546	-4.969465642952924	5.404065739266041	9.105727345985184	108.5859686250759	0	0
4.299999999999996	-1.206210564818903	-0.7949304111304505	33.21271381629705	0	0.9399999999999999	0	28.04755011206712	-8.904648871504978	-8.098392295642896	31.72699078674282	0.5537404509785684	0	0	0	28.04755011206712	-8.904648871504978	-8.098392295642896	31.72699078674282	0.5537404509785684	0	0	0	-1.185908495928909	0.1201886672430956	15.42886048257525	15.60154521847528	-15.06934468963356	4.696599737755599	46.79526001837224	89.83675454932376	0	0	3.06065784884973	-4.968678100957737	5.526917431205368	9.172155581399833	108.4380175074008	0	0
4.319999999999996	-1.185624127704737	-0.8120229936413917	33.43755219653916	0	0.9399999999999999	0	28.25923924236218	-8.936286636722235	-8.139236469329093	31.99509722118793	0.5584197910054177	0	0	0	28.25923924236218	-8.936286636722235	-8.139236469329093	31.99509722118793	0.5584197910054177	0	0	0	-1.179809699818043	0.1020672863416615	15.12683938175621	18.31123279898776	-16.30129319168923	6.304316041094126	48.78626680331197	88.68732227216799	0	0	3.173768068532091	-4.972691954037339	5.602373220368361	9.16806995458203	108.2513424306407	0	0
4.339999999999995	-1.156602553005198	-0.8359475989613586	33.66850399302117	0	0.9399999999999999	0	28.45293331205513	-8.964149774561752	-8.175827726621504	32.24343352070935	0.5627540770842854	0	0	0	28.45293331205513	-8.964149774561752	-8.175827726621504	32.24343352070935	0.5627540770842854	0	0	0	-1.171923253619063	0.0748765040858312	14.8281978573355	21.21586497877724	-17.49912540569746	7.97280037523617	50.66313097044074	87.58044909733013	0	0	3.28662352584817	-4.999477109786086	5.640419711381116	9.242342755339683	108.1286276513383	0	0
4.359999999999995	-1.13077378307895	-0.8577807574707201	33.90839216356373	0	0.9399999999999999	0	28.64141049800219	-8.990873707800699	-8.2111578823892	32.4850194704063	0.5669705473330545	0	0	0	28.64141049800219	-8.990873707800699	-8.2111578823892	32.4850194704063	0.5669705473330545	0	0	0	-1.16648487802501	0.05385309584282105	14.54475046386746	24.27539995365688	-18.69345556332326	9.671554621239073	52.22503061844764	86.39404114675696	0	0	3.3814642051365	-5.024555739623519	5.676624562373005	9.33226271048291	107.9317566873374	0	0
4.379999999999995	-1.05174739314315	-0.8626819480909952	34.09279511828539	0	0.9399999999999999	0	28.79746498768357	-9.012625437823624	-8.240146376582249	32.68506908168555	0.5704620717172123	0	0	0	28.79746498768357	-9.012625437823624	-8.240146376582249	32.68506908168555	0.5704620717172123	0	0	0	-1.104841133357618	0.005938374709336111	14.35460887371857	27.27379695150955	-19.56663400198152	11.46630115203561	50.05256750799823	84.29247543118628	0	0	3.367998571506256	-5.127742023789116	5.742312982520279	9.437500036337781	107.7050110811401	0	0
4.399999999999994	-1.029035127080638	-0.8761752794315564	34.33204165074707	0	0.9399999999999999	0	28.97671696343458	-9.037525458383678	-8.273380110890557	32.91410772585492	0.5744595501722715	0	0	0	28.97671696343458	-9.037525458383678	-8.273380110890557	32.91410772585492	0.5744595501722715	0	0	0	-1.095799332366377	-0.01040921679181543	14.12951329329653	30.54961495414236	-20.56005674662006	13.00924406923937	51.30043171130003	83.27876658096558	0	0	3.461366977995249	-5.158184669109958	5.814014106210553	9.459892620224505	107.5140845256479	0	0
4.419999999999994	-0.9888211538735512	-0.8810532745535725	34.52813189672347	0	0.9399999999999999	0	29.1222753409528	-9.057291074876057	-8.300040969890667	33.10066301214156	0.577715554154974	0	0	0	29.1222753409528	-9.057291074876057	-8.300040969890667	33.10066301214156	0.577715554154974	0	0	0	-1.066334503552354	-0.03534454380999238	13.99793959669883	33.66095754122782	-21.25130555768842	14.61189700700713	49.10389857182955	81.49736111687191	0	0	3.498450774283741	-5.186002971539462	5.955336762321418	9.564697131942829	107.181399734237	0	0
4.439999999999993	-0.9226676555380082	-0.887935536709599	34.84028222172473	0	0.9399999999999999	0	29.33885164108477	-9.087048508535815	-8.339980994090908	33.37499665902955	0.5825035795421729	0	0	0	29.33885164108477	-9.087048508535815	-8.339980994090908	33.37499665902955	0.5825035795421729	0	0	0	-1.016847223688142	-0.06896336903569412	13.77017670185215	37.10963466124728	-22.36133708239297	15.74636135434378	53.37688897071007	81.29581130361171	0	0	3.487071173197235	-5.242551046004987	6.107116164719796	9.598965220997286	106.8947000331257	0	0
4.459999999999993	-0.8616149130792479	-0.9024926682287476	35.08285931231545	0	0.9399999999999999	0	29.47655849421833	-9.105239971800945	-8.364833303935347	33.55134814578135	0.585581493626779	0	0	0	29.47655849421833	-9.105239971800945	-8.364833303935347	33.55134814578135	0.585581493626779	0	0	0	-0.9755728472612271	-0.1156120939412918	13.69692824298987	40.2708681380835	-22.98915465383276	17.23016725009829	51.15991336498162	79.48298217414496	0	0	3.513776783956611	-5.308261721777201	6.315516495217103	9.646225567967985	106.5991154765738	0	0
4.479999999999992	-0.7572803640024922	-0.9057650815211032	35.5659951971357	0	0.9399999999999999	0	29.70314815846428	-9.135494108611235	-8.405984229822536	33.83826041046898	0.5905890573099316	0	0	0	29.70314815846428	-9.135494108611235	-8.405984229822536	33.83826041046898	0.5905890573099316	0	0	0	-0.8923885389169465	-0.1704829484618642	13.46919023885954	43.7747352854716	-24.1713907336506	17.89383389848905	57.77256298988731	79.10737792693688	0	0	3.459548839682099	-5.431259161106043	6.416700070795904	9.66374766726442	106.4396693984449	0	0
4.499999999999992	-0.715767503377098	-0.9106699340422094	35.86340272793112	0	0.9399999999999999	0	29.83791749261826	-9.153085133727217	-8.430149144171267	34.00966900834536	0.5935807017091013	0	0	0	29.83791749261826	-9.153085133727217	-8.430149144171267	34.00966900834536	0.5935807017091013	0	0	0	-0.8648083352220722	-0.1923204337956702	13.30907391950676	47.09324766550189	-24.90414088709412	19.24118891307024	58.27124769751402	77.65407666752665	0	0	3.540425934468641	-5.438199530205091	5.932632150333934	9.509771209439771	106.9427532928797	0	0
4.519999999999992	-0.6432568710713098	-0.910962957801234	36.11652696527462	0	0.9399999999999999	0	29.84672043817974	-9.154724495118344	-8.43210354665046	34.01844160276585	0.5937338123656809	0	0	0	29.84672043817974	-9.154724495118344	-8.43210354665046	34.01844160276585	0.5937338123656809	0	0	0	-0.80653082194341	-0.2332779034790116	13.29622348608274	46.99614317908367	-25.14613149754342	18.67282478938901	61.01372310796259	78.1471408967294	0	0	3.470589201109173	-5.536322297211437	6.177596168742586	9.605384091624256	106.5814880756318	0	0
4.539999999999991	-0.5705065397083672	-0.9169314801393137	36.5954225013384	0	0.9399999999999999	0	30.02969647182061	-9.178704906730481	-8.465016345423873	34.24869355536458	0.5977524670476748	0	0	0	30.02969647182061	-9.178704906730481	-8.465016345423873	34.24869355536458	0.5977524670476748	0	0	0	-0.7514475696659905	-0.2519255680770832	13.0532500504592	53.30357390213103	-26.29943646151152	21.58399435102285	59.0321392222769	75.19346570450254	0	0	3.436094602877321	-5.592714560890996	6.070458449792869	9.694414491565926	106.1041143222219	0	0
4.559999999999991	-0.487723054637566	-0.9148213072855463	36.90784783187504	0	0.9399999999999999	0	30.15411468514622	-9.19432861916343	-8.486865944653619	34.4077282236954	0.6005281456348648	0	0	0	30.15411468514622	-9.19432861916343	-8.486865944653619	34.4077282236954	0.6005281456348648	0	0	0	-0.6851115588465657	-0.2968711476887538	13.00197760146634	56.33679506592102	-26.92292900086131	22.62044095185227	59.08223672251143	74.38388861487385	0	0	3.390718033334338	-5.681637013836371	5.961805503500643	9.640643003665318	106.0046952790414	0	0
4.57999999999999	-0.4794135631636904	-0.9125793346513661	37.05656757737211	0	0.9399999999999999	0	30.16396363212228	-9.196123983110068	-8.489030037313565	34.41748636641911	0.6006984573542729	0	0	0	30.16396363212228	-9.196123983110068	-8.489030037313565	34.41748636641911	0.6006984573542729	0	0	0	-0.6776751966018072	-0.2949452398451726	12.86000482579985	59.55565090868841	-27.3833851528477	23.91990272688475	58.96638131080361	73.51201491724717	0	0	3.371463692209509	-5.672608964579009	5.619632171994875	9.625463120260488	105.862480966809	0	0
4.59999999999999	-0.4346225183871057	-0.9159518233329257	37.27387779464	0	0.9399999999999999	0	30.17087274248167	-9.197379493020494	-8.490545440830743	34.42434394723371	0.6008181447182094	0	0	0	30.17087274248167	-9.197379493020494	-8.490545440830743	34.42434394723371	0.6008181447182094	0	0	0	-0.6432805155953705	-0.3178394109047681	12.77253176502843	62.48258316251631	-27.84126940140817	25.05238828295653	58.92879759132612	72.84423935390227	0	0	3.308534051862432	-5.702542601224853	5.430777394370593	9.674386321797485	105.7089411600816	0	0
4.619999999999989	-0.2660068556705559	-0.9073796255208987	37.72436248020212	0	0.9399999999999999	0	30.27694165862415	-9.210614540601846	-8.509110583207196	34.55963994114384	0.6031795052766994	0	0	0	30.27694165862415	-9.210614540601846	-8.509110583207196	34.55963994114384	0.6031795052766994	0	0	0	-0.5035625096243763	-0.4136811430153792	12.87413843140301	64.97324879289353	-28.55220216996393	25.86242732878875	58.70994725687749	72.07252162090151	0	0	3.128395115319836	-5.916950534962355	5.608395764905354	9.642405006715316	105.6533220021755	0	0
4.639999999999989	-0.1755538677926794	-0.9116911075851521	38.05980330926107	0	0.9399999999999999	0	30.28447862143081	-9.211971705837927	-8.51075609532108	34.56711337942162	0.6033099413810912	0	0	0	30.28447862143081	-9.211971705837927	-8.51075609532108	34.56711337942162	0.6033099413810912	0	0	0	-0.4371676317506718	-0.4607711630344425	12.82831293421886	67.70986685824283	-29.0211670656901	27.13731718904708	58.29006453996783	71.09533547881672	0	0	3.0219415838877	-6.061273164467278	5.494319046728663	9.677064389096772	105.8590068018394	0	0
4.659999999999989	-0.1697312183948897	-0.9109315171847074	38.23512572158598	0	0.9399999999999999	0	30.29337030427514	-9.213571034510073	-8.512696409800002	34.57592985798507	0.6034638179604549	0	0	0	30.29337030427514	-9.213571034510073	-8.512696409800002	34.57592985798507	0.6034638179604549	0	0	0	-0.4323308606789658	-0.4566210011403245	12.65750988478173	70.55701171025214	-29.19870721347484	28.89497591443714	57.7928605144071	69.89356353316872	0	0	2.986948916336142	-6.056704318464288	5.104174373281997	9.648549895418864	106.2522142378181	0	0
4.679999999999988	-0.1720605501342056	-0.9136406655818361	38.33879057441597	0	0.9399999999999999	0	30.30149375275495	-9.215030845224506	-8.514468438242025	34.58398257496802	0.6036043643855385	0	0	0	30.30149375275495	-9.215030845224506	-8.514468438242025	34.58398257496802	0.6036043643855385	0	0	0	-0.436683768070916	-0.4567384946474493	12.55563494718886	70.6504250532335	-29.27190844869432	28.68936895229594	59.20187268845002	70.11628460869235	0	0	2.978627665054221	-6.061287916269335	4.757497535901165	9.632857437519821	105.8111085748592	0	0
4.699999999999988	0.1870196617419233	-0.9343970355108326	39.41926818933007	0	0.9399999999999999	0	30.42767754307907	-9.230751086191779	-8.536543000475326	34.74420122829606	0.6064007074092244	0	0	0	30.42767754307907	-9.230751086191779	-8.536543000475326	34.74420122829606	0.6064007074092244	0	0	0	-0.1550103988470819	-0.6991812686554679	12.8762839210913	74.83518113101107	-30.70319345703695	31.80235990636642	56.87920115367953	66.53933021404717	0	0	2.669191888244147	-6.597136531007045	5.807454650811474	9.608688982080514	105.7801393120943	0	0
